<svg xmlns="http://www.w3.org/2000/svg" viewBox="0 0 60 30" width="24" height="24" role="img" aria-label="Flag of the United Kingdom">
  <!-- Blue field -->
  <rect width="60" height="30" fill="#012169"/>

  <!-- Broad white diagonals -->
  <path d="M0 0 L12 0 L60 18 L60 30 L48 30 L0 12 Z" fill="#fff"/>
  <path d="M60 0 L60 12 L12 30 L0 30 L0 18 L48 0 Z" fill="#fff"/>

  <!-- Narrow red diagonals -->
  <path d="M0 0 L7.2 0 L60 19.2 L60 30 L52.8 30 L0 10.8 Z" fill="#C8102E"/>
  <path d="M60 0 L60 7.2 L7.2 30 L0 30 L0 22.8 L52.8 0 Z" fill="#C8102E"/>

  <!-- Broad white cross -->
  <rect x="24" width="12" height="30" fill="#fff"/>
  <rect y="9" width="60" height="12" fill="#fff"/>

  <!-- Narrow red cross -->
  <rect x="26.4" width="7.2" height="30" fill="#C8102E"/>
  <rect y="10.8" width="60" height="8.4" fill="#C8102E"/>
</svg>
